<svg class="app-icon" data-droip="dps307zs" xmlns="http://www.w3.org/2000/svg" width="48" height="49" viewBox="0 0 48 49" fill="none">
    <g clip-path="url(#clip0_946_18717)">
        <rect y="0.5" width="48" height="48" fill="#67B0F9"></rect>
        <path d="M15.8642 23.1367C20.2958 23.9944 21.6714 28.097 21.7076 32.2232C21.7084 32.3161 21.6335 32.3919 21.5406 32.3919H15.9621C15.87 32.3919 15.7951 32.3175 15.7946 32.2254C15.7778 29.0241 15.2592 26.199 12.0872 26.0771C11.9925 26.0735 11.9137 26.1493 11.9137 26.244V32.2249C11.9137 32.3171 11.8389 32.3919 11.7467 32.3919H6.16698C6.07479 32.3919 6 32.3172 6 32.2249V16.9855C6 16.8933 6.07479 16.8185 6.16698 16.8185H11.7467C11.8389 16.8185 11.9137 16.8933 11.9137 16.9855V22.6942C11.9137 22.7789 11.9823 22.8475 12.067 22.8475C12.1341 22.8475 12.1938 22.8038 12.2133 22.7393C13.6507 18.0318 16.3349 16.8481 20.6937 16.819C20.7862 16.8184 20.862 16.8935 20.862 16.986V22.6805C20.862 22.7727 20.7872 22.8475 20.695 22.8475H15.8922C15.8115 22.8475 15.7461 22.9129 15.7461 22.9935C15.7461 23.0634 15.7957 23.1236 15.8642 23.1367ZM42 31.2936C42 31.4173 41.9317 31.5311 41.8222 31.5888C41.2973 31.8649 39.6746 32.6304 37.8183 32.6304C34.0006 32.6304 31.1949 31.0492 31.1408 26.7053H31.1395V23.0145C31.1395 22.9223 31.2142 22.8475 31.3065 22.8475H35.4124C35.4932 22.8475 35.5587 22.782 35.5587 22.7011C35.5587 22.6311 35.5088 22.5711 35.44 22.5576C32.2276 21.9204 30.7445 20.0711 30.6933 16.9857C30.6919 16.894 30.7655 16.8185 30.857 16.8185H36.8861C36.9783 16.8185 37.0531 16.8933 37.0531 16.9855V19.5847C37.0531 19.6769 37.1279 19.7517 37.2201 19.7517H40.6772C40.7694 19.7517 40.8442 19.8265 40.8442 19.9187V22.6805C40.8442 22.7727 40.7694 22.8475 40.6772 22.8475H37.2201C37.1279 22.8475 37.0531 22.9223 37.0531 23.0145V25.9916C37.0531 27.0434 37.698 27.3902 38.5555 27.3902C39.8993 27.3902 41.2249 26.7847 41.7566 26.5102C41.8678 26.4528 42 26.5337 42 26.6587V31.2936ZM23.2911 32.2249V23.0141C23.2911 22.922 23.3659 22.8472 23.4581 22.8472H29.0378C29.13 22.8472 29.2048 22.922 29.2048 23.0141V32.2249C29.2048 32.3171 29.13 32.3919 29.0378 32.3919H23.4581C23.3659 32.3919 23.2911 32.3172 23.2911 32.2249ZM22.9752 19.2098C22.9752 20.7775 24.0823 22.0485 26.2093 22.0485C28.3364 22.0485 29.4435 20.7775 29.4435 19.2098C29.4435 17.6421 28.3362 16.3711 26.2093 16.3711C24.0823 16.3711 22.9752 17.6421 22.9752 19.2098Z" fill="#1E1E1E"></path>
    </g>
    <defs>
        <clipPath id="clip0_946_18717">
            <rect y="0.5" width="48" height="48" rx="12" fill="white"></rect>
        </clipPath>
    </defs>
</svg>