<svg class="app-icon" data-droip="dpkb45bj" xmlns="http://www.w3.org/2000/svg" width="48" height="49" viewBox="0 0 48 49" fill="none">
    <g clip-path="url(#clip0_1266_25545)">
        <rect y="0.5" width="48" height="48" fill="white"></rect>
        <path d="M41.28 24.8987C41.28 23.4187 41.1599 22.3387 40.9 21.2188H24V27.8987H33.9199C33.72 29.5587 32.64 32.0587 30.24 33.7386L30.2063 33.9623L35.5498 38.1018L35.92 38.1388C39.3199 34.9987 41.28 30.3787 41.28 24.8987Z" fill="#4285F4"></path>
        <path d="M24.0019 42.4986C28.8619 42.4986 32.9418 40.8985 35.9219 38.1386L30.2419 33.7385C28.7219 34.7985 26.6819 35.5385 24.0019 35.5385C19.242 35.5385 15.202 32.3986 13.7618 28.0586L13.5508 28.0765L7.99454 32.3765L7.92188 32.5785C10.8818 38.4585 16.9619 42.4986 24.0019 42.4986Z" fill="#34A853"></path>
        <path d="M13.7599 28.0597C13.3799 26.9397 13.16 25.7396 13.16 24.4997C13.16 23.2596 13.3799 22.0596 13.7399 20.9396L13.7299 20.7011L8.10402 16.332L7.91995 16.4196C6.70001 18.8596 6 21.5997 6 24.4997C6 27.3997 6.70001 30.1396 7.91995 32.5796L13.7599 28.0597Z" fill="#FBBC05"></path>
        <path d="M24.0019 13.46C27.3819 13.46 29.6618 14.9199 30.9619 16.14L36.0419 11.18C32.922 8.28001 28.8619 6.5 24.0019 6.5C16.9619 6.5 10.8818 10.54 7.92188 16.4199L13.7419 20.94C15.202 16.6 19.242 13.46 24.0019 13.46Z" fill="#EB4335"></path>
    </g>
    <defs>
        <clipPath id="clip0_1266_25545">
            <rect y="0.5" width="48" height="48" rx="12" fill="white"></rect>
        </clipPath>
    </defs>
</svg>