<svg class="app-icon" data-droip="dp8d4kjg" xmlns="http://www.w3.org/2000/svg" width="48" height="49" viewBox="0 0 48 49" fill="none" style="animation-name: none; will-change: transform; transition-property: transform; transition-duration: 400ms; transition-timing-function: ease; transform-style: preserve-3d; transform: scaleX(1) scaleY(1);">
    <g clip-path="url(#clip0_946_18690)">
        <rect y="0.5" width="48" height="48" fill="#1F8DED"></rect>
        <path d="M41.9999 26.9543C41.9952 27.3852 41.8208 27.7969 41.5144 28.1C41.208 28.4031 40.7945 28.5731 40.3635 28.5731C39.9326 28.5731 39.519 28.4031 39.2126 28.1C38.9063 27.7969 38.7318 27.3852 38.7271 26.9543V12.2371C38.7318 11.8062 38.9063 11.3945 39.2126 11.0914C39.519 10.7883 39.9326 10.6183 40.3635 10.6183C40.7945 10.6183 41.208 10.7883 41.5144 11.0914C41.8208 11.3945 41.9952 11.8062 41.9999 12.2371V26.9543ZM41.4289 37.1968C41.1759 37.4133 35.1142 42.4999 24 42.4999C12.8859 42.4999 6.82438 37.4131 6.57145 37.1966C6.24199 36.9141 6.03823 36.5123 6.00497 36.0796C5.97171 35.6469 6.11166 35.2187 6.39407 34.8891C6.67586 34.5601 7.07666 34.3563 7.50852 34.3225C7.94039 34.2886 8.36805 34.4274 8.69768 34.7085C8.79375 34.789 14.2068 39.227 24.0002 39.227C33.9165 39.227 39.2457 34.757 39.2984 34.712C39.9832 34.1238 41.0181 34.2028 41.6058 34.8893C41.8883 35.2188 42.0284 35.647 41.9952 36.0797C41.962 36.5124 41.7583 36.9143 41.4289 37.1968ZM6 12.2371C6.00466 11.8062 6.17912 11.3945 6.4855 11.0914C6.79187 10.7883 7.20543 10.6183 7.63639 10.6183C8.06734 10.6183 8.4809 10.7883 8.78727 11.0914C9.09365 11.3945 9.26811 11.8062 9.27277 12.2371V26.9543C9.26811 27.3852 9.09365 27.7969 8.78727 28.1C8.4809 28.4031 8.06734 28.5731 7.63639 28.5731C7.20543 28.5731 6.79187 28.4031 6.4855 28.1C6.17912 27.7969 6.00466 27.3852 6 26.9543V12.2371ZM14.182 8.96431C14.1886 8.53468 14.3639 8.12487 14.67 7.82337C14.9762 7.52187 15.3886 7.35288 15.8183 7.35288C16.248 7.35288 16.6604 7.52187 16.9666 7.82337C17.2727 8.12487 17.448 8.53468 17.4546 8.96431V30.8252C17.448 31.2548 17.2727 31.6646 16.9666 31.9661C16.6604 32.2676 16.248 32.4366 15.8183 32.4366C15.3886 32.4366 14.9762 32.2676 14.67 31.9661C14.3639 31.6646 14.1886 31.2548 14.182 30.8252V8.96431ZM22.3637 8.13629C22.3636 7.9214 22.4059 7.70861 22.4882 7.51008C22.5704 7.31154 22.6909 7.13115 22.8429 6.9792C22.9948 6.82725 23.1752 6.70673 23.3737 6.6245C23.5723 6.54228 23.7851 6.49997 24 6.5C24.2149 6.49995 24.4277 6.54224 24.6262 6.62445C24.8248 6.70666 25.0052 6.82718 25.1572 6.97913C25.3091 7.13109 25.4297 7.31149 25.5119 7.51003C25.5942 7.70858 25.6365 7.92139 25.6364 8.13629V31.8634C25.6318 32.2943 25.4573 32.706 25.1509 33.0091C24.8446 33.3121 24.431 33.4821 24.0001 33.4821C23.5691 33.4821 23.1555 33.3121 22.8492 33.0091C22.5428 32.706 22.3683 32.2943 22.3637 31.8634V8.13629ZM30.5455 8.96431C30.5521 8.53468 30.7274 8.12487 31.0335 7.82337C31.3397 7.52187 31.7521 7.35288 32.1818 7.35288C32.6115 7.35288 33.0239 7.52187 33.3301 7.82337C33.6362 8.12487 33.8115 8.53468 33.8181 8.96431V30.8252C33.8115 31.2548 33.6362 31.6646 33.3301 31.9661C33.0239 32.2676 32.6115 32.4366 32.1818 32.4366C31.7521 32.4366 31.3397 32.2676 31.0335 31.9661C30.7274 31.6646 30.5521 31.2548 30.5455 30.8252V8.96431Z" fill="white"></path>
    </g>
    <defs>
        <clipPath id="clip0_946_18690">
            <rect y="0.5" width="48" height="48" rx="12" fill="white"></rect>
        </clipPath>
    </defs>
</svg>