<svg class="app-icon" data-droip="dpqow0tb" xmlns="http://www.w3.org/2000/svg" width="48" height="49" viewBox="0 0 48 49" fill="none">
    <g clip-path="url(#clip0_946_18713)">
        <rect y="0.5" width="48" height="48" fill="#F9E050"></rect>
        <path d="M32.5388 23.507C32.7852 23.4777 33.0371 23.4777 33.2824 23.507C33.4174 23.2021 33.441 22.6689 33.3172 22.0952C33.1418 21.2403 32.901 20.7183 32.3971 20.8004C31.8987 20.8825 31.8818 21.5035 32.0573 22.3584C32.1631 22.8388 32.3386 23.255 32.5377 23.507H32.5388ZM28.2495 24.1864C28.6072 24.345 28.8232 24.4497 28.912 24.3563C28.9649 24.2978 28.9525 24.1921 28.8648 24.0514C28.6893 23.7646 28.326 23.471 27.939 23.3079C27.1302 22.9681 26.1987 23.0795 25.49 23.6003C25.2493 23.7758 25.0277 24.0222 25.0569 24.1684C25.0682 24.2157 25.1042 24.2506 25.1863 24.2618C25.3854 24.2854 26.0705 23.9401 26.8681 23.8872C27.4249 23.8523 27.8929 24.0278 28.2506 24.1864H28.2495ZM27.5295 24.597C27.0604 24.6735 26.8084 24.8254 26.6453 24.966C26.4991 25.0886 26.417 25.2292 26.417 25.3237L26.4518 25.4115L26.5283 25.4407C26.6341 25.4407 26.8681 25.3406 26.8681 25.3406C27.3484 25.1651 27.8636 25.1066 28.3676 25.1887C28.6016 25.2124 28.7129 25.2292 28.7658 25.1482C28.7771 25.1246 28.795 25.0774 28.7478 25.002C28.6421 24.8209 28.1673 24.5205 27.5295 24.597ZM31.0921 26.1078C31.4082 26.2597 31.7547 26.2012 31.8661 25.9728C31.9831 25.7388 31.8188 25.4216 31.5027 25.2697C31.1866 25.1111 30.8402 25.1764 30.7232 25.4047C30.6118 25.6387 30.776 25.9492 31.0921 26.1078ZM33.1249 24.327C32.8673 24.3214 32.6502 24.6027 32.6502 24.9593C32.6445 25.3114 32.8437 25.5982 33.1013 25.6038C33.3589 25.6095 33.5704 25.3282 33.576 24.9773C33.5816 24.6252 33.3769 24.3327 33.1249 24.327ZM15.8697 30.6896C15.8055 30.6131 15.6998 30.6367 15.5997 30.6604C15.5176 30.6784 15.4354 30.6896 15.3589 30.6952C15.1835 30.6952 15.0192 30.6131 14.9191 30.4725C14.8021 30.2914 14.8077 30.0214 14.9371 29.7166L14.9956 29.5759C15.2071 29.1136 15.5468 28.3397 15.1598 27.6017C14.873 27.0449 14.3983 26.6995 13.8234 26.6286C13.2722 26.5578 12.7278 26.7513 12.3464 27.1562C11.7783 27.7828 11.6906 28.6389 11.8019 28.9437C11.8424 29.0551 11.9077 29.0844 11.9538 29.09C12.0472 29.1012 12.1878 29.0315 12.2823 28.7907L12.3059 28.7143C12.3464 28.5849 12.4229 28.3453 12.5399 28.1574C12.856 27.6771 13.4949 27.5421 13.9697 27.8582C14.3679 28.1158 14.5265 28.6085 14.3566 29.0709C14.2689 29.3172 14.1227 29.7739 14.1575 30.1553C14.2217 30.9225 14.6907 31.2273 15.1126 31.2622C15.5232 31.2802 15.81 31.0451 15.8865 30.8752C15.927 30.7751 15.8922 30.7166 15.8685 30.6874L15.8697 30.6896ZM39.6044 29.2891C39.5864 29.2306 39.4875 28.856 39.3468 28.4105L39.06 27.6433C39.6224 26.7996 39.6337 26.0437 39.5583 25.6162C39.4762 25.0886 39.2591 24.6375 38.8147 24.1752C38.3749 23.7061 37.4671 23.2257 36.1903 22.8691L35.5221 22.688C35.5221 22.6588 35.4872 21.1064 35.458 20.4438C35.44 19.9635 35.3995 19.2075 35.1655 18.4696C34.8899 17.4673 34.4039 16.5887 33.7998 16.0262C35.4636 14.2983 36.5064 12.3938 36.5008 10.765C36.4952 7.61854 32.6457 6.66911 27.8996 8.63772L26.8917 9.06519C26.2763 8.46223 25.6666 7.85815 25.0457 7.25519C19.6314 2.52713 2.71142 21.364 8.11894 25.9458L9.30236 26.9481C8.98625 27.8031 8.87488 28.7232 8.97388 29.6378C9.10324 30.8977 9.74783 32.1048 10.8019 33.0362C11.7974 33.9204 13.1102 34.4829 14.3881 34.4829C16.4917 39.3403 21.3019 42.3225 26.9378 42.4923C32.9899 42.6678 38.07 39.8263 40.1962 34.718C40.3368 34.3602 40.9285 32.7437 40.9285 31.3196C40.9285 29.8842 40.1197 29.2925 39.6044 29.2925V29.2891ZM14.8505 33.1093C14.6694 33.1442 14.4759 33.1566 14.288 33.1498C12.4656 33.1026 10.4914 31.4568 10.2923 29.4994C10.0752 27.3373 11.1765 25.6792 13.1282 25.2866C13.3982 25.2281 13.6727 25.2101 13.9483 25.2225C15.044 25.2866 16.6549 26.1247 17.0182 28.5095C17.3467 30.6244 16.8303 32.7752 14.8505 33.115V33.1093ZM12.8121 23.9929C11.5995 24.2269 10.5274 24.9188 9.87044 25.8682C9.47784 25.5465 8.75114 24.9131 8.6229 24.6668C7.5801 22.6745 9.76583 18.8138 11.289 16.6281C15.062 11.2374 20.9734 7.15395 23.7104 7.8919C24.1559 8.02126 25.6261 9.73115 25.6261 9.73115C25.6261 9.73115 22.8903 11.2487 20.3525 13.3692C16.9372 16.006 14.3589 19.8318 12.8121 23.9918V23.9929ZM31.9876 32.3073C32.0281 32.2893 32.0585 32.2431 32.0517 32.2015C32.0461 32.143 31.9988 32.1014 31.9403 32.1081C31.9403 32.1081 29.0808 32.5356 26.3742 31.5401C26.6667 30.585 27.4519 30.9304 28.6353 31.0248C30.4746 31.1362 32.3206 30.9371 34.0957 30.4331C35.3207 30.081 36.926 29.3903 38.1792 28.4004C38.601 29.3262 38.7473 30.3454 38.7473 30.3454C38.7473 30.3454 39.0757 30.2869 39.3446 30.4568C39.6022 30.6154 39.7901 30.9495 39.6607 31.7988C39.4031 33.3928 38.7236 34.6876 37.5863 35.8823C36.8776 36.6495 36.0339 37.2828 35.0901 37.7451C34.5682 38.0208 34.0237 38.2491 33.4669 38.437C29.1775 39.8375 24.7892 38.2964 23.3718 34.9857C23.2604 34.7337 23.167 34.4705 23.0906 34.2005C22.4876 32.0204 22.9972 29.4016 24.6025 27.7558C24.6958 27.6501 24.7959 27.5275 24.7959 27.3688C24.7959 27.2395 24.7138 27.1056 24.6441 27.0055C24.0872 26.191 22.1479 24.8085 22.5348 22.1244C22.8161 20.1963 24.4978 18.843 26.0682 18.9195L26.4665 18.9432C27.1459 18.9837 27.7376 19.0725 28.2945 19.095C29.2315 19.1355 30.0752 19.0017 31.0719 18.1692C31.406 17.888 31.6749 17.6416 32.1327 17.5662C32.1799 17.5606 32.3026 17.5134 32.5365 17.5258C32.7829 17.537 33.0169 17.6135 33.2216 17.7485C34.0248 18.2817 34.1362 19.5709 34.1767 20.5136C34.2003 21.0524 34.2644 22.3528 34.2881 22.7285C34.3409 23.5835 34.5637 23.7072 35.0148 23.8535C35.2724 23.9412 35.5131 24.0053 35.8584 24.0998C36.9193 24.399 37.5458 24.7028 37.9384 25.0897C38.1792 25.3305 38.2838 25.5881 38.3198 25.8333C38.4492 26.7479 37.6167 27.8728 35.4141 28.8976C33.0056 30.0169 30.0887 30.2981 28.0728 30.0754L27.3641 29.9933C25.7533 29.7762 24.8331 31.8618 25.7994 33.2983C26.4203 34.2185 28.1257 34.8215 29.8244 34.8215C33.7211 34.8215 36.7201 33.1521 37.8338 31.7099L37.9216 31.5806C37.9801 31.4984 37.9328 31.4579 37.8631 31.5041C36.9552 32.125 32.9066 34.6032 28.5824 33.8597C28.5824 33.8597 28.0548 33.7719 27.5745 33.584C27.1932 33.4378 26.3967 33.0688 26.2977 32.2476C29.7895 33.3321 31.9865 32.3061 31.9865 32.3061L31.9876 32.3073ZM19.7777 16.6044C21.1197 15.052 22.7711 13.7044 24.2481 12.9484C24.301 12.9192 24.3538 12.9777 24.3302 13.0249C24.2132 13.2364 23.9849 13.6988 23.914 14.0385C23.9028 14.0914 23.9612 14.1319 24.0017 14.1026C24.9276 13.476 26.5272 12.8022 27.9334 12.7144C27.9918 12.7144 28.0211 12.7909 27.9739 12.8258C27.7399 13.0069 27.534 13.2128 27.3529 13.4468C27.3236 13.4873 27.3529 13.5401 27.4001 13.5401C28.3901 13.5514 29.7794 13.8979 30.6815 14.4075C30.7457 14.4423 30.7052 14.5593 30.6343 14.5425C29.263 14.2263 27.0188 13.9856 24.6879 14.5605C22.608 15.07 21.0207 15.8496 19.8598 16.6989C19.8013 16.7394 19.7304 16.6629 19.7777 16.6044Z" fill="black"></path>
    </g>
    <defs>
        <clipPath id="clip0_946_18713">
            <rect y="0.5" width="48" height="48" rx="12" fill="white"></rect>
        </clipPath>
    </defs>
</svg>