<svg class="app-icon" data-droip="dp5dj39o" xmlns="http://www.w3.org/2000/svg" width="48" height="49" viewBox="0 0 48 49" fill="none" style="animation-name: none; will-change: transform; transition-property: transform; transition-duration: 400ms; transition-timing-function: ease; transform-style: preserve-3d; transform: scaleX(1) scaleY(1);">
    <g clip-path="url(#clip0_946_18707)">
        <rect y="0.5" width="48" height="48" fill="#3C387F"></rect>
        <path d="M10.9575 27.0389C10.1263 27.109 9.34771 26.9827 8.61821 26.6531C7.8887 26.3164 7.28897 25.8218 6.82251 25.173C6.36306 24.5101 6.093 23.7456 6.01935 22.8723C5.9457 21.999 6.08248 21.2028 6.42619 20.4803C6.78042 19.7508 7.28546 19.1616 7.94833 18.7197C8.61119 18.2778 9.36174 18.0148 10.1894 17.9446C11.0277 17.8745 11.8063 18.0007 12.5288 18.3304C13.2583 18.6566 13.851 19.1511 14.3139 19.814C14.7734 20.4698 15.0434 21.2309 15.1171 22.1042C15.1907 22.9775 15.054 23.7771 14.7103 24.5066C14.3665 25.2291 13.865 25.8183 13.1986 26.2673C12.5358 26.7092 11.7887 26.9687 10.9575 27.0389ZM10.7646 24.7486C11.3924 24.696 11.8729 24.447 12.1991 24.0086C12.5358 23.5632 12.6691 23.002 12.6129 22.3111C12.5533 21.6062 12.3218 21.0696 11.922 20.6978C11.5257 20.3155 11.0136 20.1507 10.3858 20.2033C9.75104 20.2559 9.26704 20.5049 8.94087 20.9433C8.6147 21.3747 8.48142 21.9464 8.54105 22.6478C8.60067 23.3422 8.82864 23.8824 9.22145 24.2611C9.61075 24.6434 10.1298 24.8012 10.7646 24.7486ZM18.1964 16.8784L18.8909 26.1971L16.4218 26.3795L15.7274 17.0608L18.1964 16.8784ZM19.5713 22.5391C19.5187 21.8096 19.6028 21.1607 19.8238 20.5961C20.0518 20.0314 20.3814 19.586 20.8163 19.2563C21.2582 18.9301 21.7563 18.7443 22.3209 18.7022C22.8084 18.6671 23.2328 18.7337 23.6011 18.9021C23.9693 19.0704 24.2604 19.3124 24.4779 19.6211L24.4077 18.6391L26.8768 18.4602L27.3924 25.5272L24.9233 25.7061L24.8531 24.7241C24.6848 25.0678 24.4288 25.3449 24.0781 25.5658C23.7379 25.7833 23.331 25.913 22.854 25.9481C22.2894 25.9902 21.7703 25.878 21.2863 25.6184C20.8093 25.3589 20.42 24.9626 20.1114 24.4365C19.8027 23.9034 19.6239 23.2721 19.5713 22.5391ZM24.6638 22.2655C24.6638 21.8096 24.5375 21.4518 24.285 21.1923C24.0395 20.9328 23.7379 20.7995 23.3766 20.7995C23.0048 20.7995 22.6997 20.9293 22.4542 21.1923C22.2087 21.4448 22.0895 21.8026 22.0895 22.2655C22.0895 22.7215 22.2122 23.0827 22.4542 23.3528C22.6997 23.6123 23.0048 23.7456 23.3766 23.7456C23.7379 23.7456 24.043 23.6158 24.285 23.3528C24.5375 23.0932 24.6638 22.7285 24.6638 22.2655ZM30.5068 19.4948C30.7558 19.0739 31.068 18.7302 31.4467 18.4637C31.8255 18.2006 32.2394 18.0498 32.6953 18.0183L32.8847 20.6487L32.1938 20.6978C31.6537 20.7364 31.2644 20.8696 31.0189 21.0976C30.7769 21.3256 30.6681 21.7009 30.7067 22.2199L30.9277 25.3098L28.4586 25.4887L27.95 18.4216L30.4191 18.2427L30.5068 19.4948ZM38.4752 24.7241L36.3253 21.9604L36.5217 24.8574L34.0526 25.0257L33.4213 15.7035L35.8904 15.5352L36.2306 20.561L37.9947 17.657L40.9548 17.4571L38.4086 21.1958L41.4809 24.5172L38.4752 24.7241Z" fill="white"></path>
        <path fill-rule="evenodd" clip-rule="evenodd" d="M41.7915 25.5901C41.6582 25.6006 41.6196 25.79 41.069 25.8321L39.859 25.9233L39.8555 25.9198L17.6688 27.6138C17.4268 27.6313 17.1988 27.7435 17.027 27.9259L14.4912 30.6475V28.1223C14.4912 27.9645 14.365 27.8487 14.2072 27.8593L11.1699 28.0907L7.59253 28.3292C7.13659 28.3643 6.75781 28.7887 6.75781 29.4095C6.75781 29.6725 6.83497 30.0057 6.96825 29.9987C7.10152 29.9881 7.1401 29.7988 7.69073 29.7567L12.8008 29.3639C12.9621 29.3568 13.0919 29.4796 13.0919 29.6409V33.0605C13.0919 33.4533 13.5688 33.6111 13.8459 33.313L17.6057 29.2867C17.7775 29.1008 18.016 28.9851 18.2615 28.9675L33.4969 27.8031L41.1672 27.2595C41.6231 27.2245 42.0019 26.8001 42.0019 26.1793C41.9984 25.9128 41.9248 25.5796 41.7915 25.5901Z" fill="white"></path>
    </g>
    <defs>
        <clipPath id="clip0_946_18707">
            <rect y="0.5" width="48" height="48" rx="12" fill="white"></rect>
        </clipPath>
    </defs>
</svg>