<svg class="app-icon" data-droip="dpp97om9" xmlns="http://www.w3.org/2000/svg" width="48" height="49" viewBox="0 0 48 49" fill="none" style="animation-name: none; will-change: transform; transition-property: transform; transition-duration: 400ms; transition-timing-function: ease; transform-style: preserve-3d; transform: scaleX(1) scaleY(1);">
    <g clip-path="url(#clip0_1266_25491)">
        <rect y="0.5" width="48" height="48" fill="white"></rect>
        <path d="M18 42.5C21.312 42.5 24 39.812 24 36.5V30.5H18C14.688 30.5 12 33.188 12 36.5C12 39.812 14.688 42.5 18 42.5Z" fill="#0ACF83"></path>
        <path d="M12 24.5C12 21.188 14.688 18.5 18 18.5H24V30.5H18C14.688 30.5 12 27.812 12 24.5Z" fill="#A259FF"></path>
        <path d="M12 12.5C12 9.188 14.688 6.5 18 6.5H24V18.5H18C14.688 18.5 12 15.812 12 12.5Z" fill="#F24E1E"></path>
        <path d="M24 6.5H30C33.312 6.5 36 9.188 36 12.5C36 15.812 33.312 18.5 30 18.5H24V6.5Z" fill="#FF7262"></path>
        <path d="M36 24.5C36 27.812 33.312 30.5 30 30.5C26.688 30.5 24 27.812 24 24.5C24 21.188 26.688 18.5 30 18.5C33.312 18.5 36 21.188 36 24.5Z" fill="#1ABCFE"></path>
    </g>
    <defs>
        <clipPath id="clip0_1266_25491">
            <rect y="0.5" width="48" height="48" rx="12" fill="white"></rect>
        </clipPath>
    </defs>
</svg>