<svg class="app-icon" data-droip="dpuvacvr" xmlns="http://www.w3.org/2000/svg" width="48" height="49" viewBox="0 0 48 49" fill="none" style="animation-name: none; will-change: transform; transition-property: transform; transition-duration: 400ms; transition-timing-function: ease; transform-style: preserve-3d; transform: scaleX(1) scaleY(1);">
    <g clip-path="url(#clip0_1266_25460)">
        <rect y="0.5" width="48" height="48" fill="#EC8162"></rect>
        <path fill-rule="evenodd" clip-rule="evenodd" d="M41.1578 11.2632C40.8588 9.41348 39.7431 8.29964 37.9457 8.04545C37.9019 8.03498 33.5246 7.19531 26.6549 7.19531C19.7872 7.19531 15.4099 8.03498 15.3804 8.04164C13.9743 8.24156 12.9937 8.96223 12.4844 10.1284C15.4281 9.80301 18.3878 9.64314 21.3494 9.64958C28.0077 9.64958 32.4374 10.415 33.0876 10.5349C36.0188 10.9748 38.0571 13.0082 38.5502 15.988C38.7635 16.9591 39.4375 20.3729 39.4375 24.4485C39.4375 26.6305 39.2414 28.6325 39.03 30.1624C40.1915 29.6712 40.9226 28.6868 41.153 27.2645C41.1606 27.2293 42.0031 23.6336 42.0031 19.2534C42.0031 14.8742 41.1606 11.2785 41.1559 11.2623" fill="white"></path>
        <path fill-rule="evenodd" clip-rule="evenodd" d="M35.8491 16.4576C35.5502 14.6069 34.4335 13.493 32.6371 13.2379C32.5933 13.2284 28.2159 12.3906 21.3472 12.3906C14.4795 12.3906 10.1012 13.2284 10.0727 13.236C8.26101 13.493 7.14526 14.6069 6.85109 16.4376C6.84157 16.4728 6 20.0685 6 24.4487C6 28.8279 6.84157 32.4236 6.84633 32.4389C7.14526 34.2896 8.26101 35.4034 10.0584 35.6585C10.0936 35.6652 12.9334 36.2088 17.6106 36.4211L20.3981 41.2497C20.4942 41.4163 20.6326 41.5547 20.7992 41.651C20.9658 41.7472 21.1548 41.7979 21.3472 41.7979C21.5397 41.7979 21.7287 41.7472 21.8953 41.651C22.0619 41.5547 22.2002 41.4163 22.2964 41.2497L25.0848 36.422C29.762 36.2088 32.599 35.6662 32.6228 35.6604C34.4335 35.4034 35.5502 34.2896 35.8444 32.4589C35.8539 32.4236 36.6945 28.8279 36.6945 24.4487C36.6945 20.0685 35.8529 16.4728 35.8491 16.4576Z" fill="white"></path>
    </g>
    <defs>
        <clipPath id="clip0_1266_25460">
            <rect y="0.5" width="48" height="48" rx="12" fill="white"></rect>
        </clipPath>
    </defs>
</svg>