<svg class="app-icon" data-droip="dpjvtgqz" xmlns="http://www.w3.org/2000/svg" width="48" height="49" viewBox="0 0 48 49" fill="none" style="animation-name: none; will-change: transform; transition-property: transform; transition-duration: 400ms; transition-timing-function: ease; transform-style: preserve-3d; transform: scaleX(1) scaleY(1);">
    <g clip-path="url(#clip0_1266_25565)">
        <rect y="0.5" width="48" height="48" fill="white"></rect>
        <path d="M31.0312 29.7164H26.8125V42.2789C31.2866 41.5711 35.3293 39.2025 38.1341 35.6456C40.9389 32.0888 42.2996 27.6052 41.9446 23.0894C41.5896 18.5736 39.5451 14.3577 36.219 11.2828C32.8929 8.20783 28.5297 6.5 24 6.5C19.4703 6.5 15.1071 8.20783 11.781 11.2828C8.45487 14.3577 6.41036 18.5736 6.05539 23.0894C5.70041 27.6052 7.06107 32.0888 9.86588 35.6456C12.6707 39.2025 16.7134 41.5711 21.1875 42.2789V29.7164H16.5938V24.4664H21.1875V20.2476C21.4375 14.6852 25.0625 12.5602 32.0625 13.8727V18.2789H29.625C27.8125 18.3414 26.875 19.2789 26.8125 21.0914V24.4664H31.8281" fill="#1877F2"></path>
    </g>
    <defs>
        <clipPath id="clip0_1266_25565">
            <rect y="0.5" width="48" height="48" rx="12" fill="white"></rect>
        </clipPath>
    </defs>
</svg>