<svg class="app-icon" data-droip="dptpq6ke" xmlns="http://www.w3.org/2000/svg" width="48" height="49" viewBox="0 0 48 49" fill="none">
    <g clip-path="url(#clip0_1266_25474)">
        <rect y="0.5" width="48" height="48" fill="white"></rect>
        <path d="M38.0176 10.0977H9.95604C7.79341 10.0977 6 11.8735 6 14.015V27.0728V29.6322V38.9033L11.4593 33.5496H38.0439C40.2065 33.5496 42 31.7737 42 29.6322V14.015C41.9736 11.8474 40.2065 10.0977 38.0176 10.0977Z" fill="#09C269"></path>
        <path d="M32.8468 19.1862C35.8533 19.1862 37.2249 21.5628 37.2249 23.7565C37.2249 24.3572 36.7765 24.775 36.1699 24.775H30.6314C30.8951 26.1069 31.8446 26.812 33.3478 26.812C34.4292 26.812 35.0358 26.577 35.5633 26.3158C35.6951 26.2374 35.827 26.2113 35.9852 26.2113C36.5127 26.2113 36.9347 26.6292 36.9347 27.1516C36.9347 27.491 36.7237 27.8044 36.3545 28.0133C35.616 28.4312 34.8248 28.7968 33.1896 28.7968C30.2358 28.7968 28.4424 26.9949 28.4424 23.9915C28.4424 20.4659 30.816 19.1862 32.8468 19.1862ZM24.038 17.6454C24.3809 17.6454 24.6182 17.9065 24.6182 18.2461V19.3429H26.3061C26.8336 19.3429 27.2555 19.7608 27.2555 20.283C27.2555 20.8054 26.8336 21.2233 26.3061 21.2233H24.6446V26.133C24.6446 26.8381 25.0138 26.8904 25.515 26.8904C25.805 26.8904 25.9633 26.8381 26.1216 26.812C26.2534 26.7859 26.3852 26.7337 26.5435 26.7337C26.9655 26.7337 27.4402 27.0732 27.4402 27.6216C27.4139 27.9611 27.2292 28.2745 26.8864 28.4312C26.3853 28.6663 25.8841 28.7706 25.3303 28.7706C23.5105 28.7706 22.5348 27.9089 22.5348 26.2636V21.2233H21.5853C21.2425 21.2233 21.005 20.9621 21.005 20.6487C21.005 20.4659 21.0841 20.283 21.2425 20.1525L23.5633 17.8804C23.6161 17.8282 23.8006 17.6454 24.038 17.6454ZM13.3567 15.5039C13.9369 15.5039 14.4116 15.974 14.4116 16.5485V27.6477C14.4116 28.2223 13.9369 28.6663 13.3567 28.6663C12.7765 28.6663 12.3281 28.1962 12.3281 27.6477V16.5485C12.3281 15.974 12.7765 15.5039 13.3567 15.5039ZM18.2621 19.2645C18.8424 19.2645 19.3171 19.7347 19.3171 20.3091V27.6477C19.3171 28.2223 18.8424 28.6663 18.2621 28.6663C17.682 28.6663 17.2336 28.1962 17.2336 27.6477V20.3091C17.2336 19.7347 17.682 19.2645 18.2621 19.2645ZM32.8731 21.0404C31.871 21.0404 30.816 21.641 30.6314 23.0253H35.1413C34.9303 21.641 33.8753 21.0404 32.8731 21.0404ZM18.3149 15.7651C18.9479 15.7651 19.449 16.2613 19.449 16.888V16.9664C19.449 17.5932 18.9479 18.0894 18.3149 18.0894H18.2095C17.5764 18.0894 17.0754 17.5932 17.0754 16.9664V16.888C17.0754 16.2613 17.5764 15.7651 18.2095 15.7651H18.3149Z" fill="white"></path>
    </g>
    <defs>
        <clipPath id="clip0_1266_25474">
            <rect y="0.5" width="48" height="48" rx="12" fill="white"></rect>
        </clipPath>
    </defs>
</svg>