<svg class="app-icon" data-droip="dpa31ltt" xmlns="http://www.w3.org/2000/svg" width="48" height="49" viewBox="0 0 48 49" fill="none" style="animation-name: none; will-change: transform; transition-property: transform; transition-duration: 400ms; transition-timing-function: ease; transform-style: preserve-3d; transform: scaleX(1) scaleY(1);">
    <g clip-path="url(#clip0_1266_25573)">
        <rect y="0.5" width="48" height="48" fill="white"></rect>
        <path fill-rule="evenodd" clip-rule="evenodd" d="M18.5403 13.6183C18.8333 11.6504 22.2302 9.51565 26.1202 9.6809C22.8538 10.6021 21.1802 14.3792 19.7384 14.8984C18.8532 15.2175 18.4312 14.3552 18.5403 13.6183Z" fill="#E363A4"></path>
        <path fill-rule="evenodd" clip-rule="evenodd" d="M18.5392 13.6184C18.8321 11.6504 22.2291 9.51565 26.119 9.6809C22.787 10.4806 21.6241 11.7628 20.8688 12.7383C20.4422 13.2885 19.548 14.4282 18.6808 14.2022C18.5206 14.1606 18.4852 13.9864 18.5392 13.6184Z" fill="#F071A8"></path>
        <path fill-rule="evenodd" clip-rule="evenodd" d="M20.5408 11.375C19.4322 12.2848 18.8066 13.2845 18.766 14.2188C18.7379 14.2145 18.7093 14.2086 18.6817 14.2014C18.6087 14.1823 18.5611 14.1352 18.5372 14.0549C18.5187 13.9168 18.5187 13.7743 18.5379 13.6357C18.5386 13.6295 18.54 13.6233 18.54 13.6174C18.6334 12.991 19.041 12.348 19.6784 11.7678C19.9456 11.6612 20.2334 11.5261 20.5408 11.375Z" fill="#F28DB9"></path>
        <path fill-rule="evenodd" clip-rule="evenodd" d="M19.1975 10.0575C20.3186 8.41411 24.3062 7.97322 27.7344 9.81694C24.3937 9.22247 21.2416 11.8928 19.7173 11.7323C18.7815 11.6333 18.7779 10.6731 19.1975 10.0575Z" fill="#E363A4"></path>
        <path fill-rule="evenodd" clip-rule="evenodd" d="M19.1978 10.0575C20.3189 8.41411 24.3065 7.97322 27.7346 9.81694C24.3875 9.08443 22.7823 9.73144 21.6769 10.2807C21.054 10.591 19.7527 11.2262 19.0706 10.645C18.9447 10.5376 18.9873 10.3654 19.1978 10.0575Z" fill="#F071A8"></path>
        <path fill-rule="evenodd" clip-rule="evenodd" d="M20.1602 6.90295C21.8291 5.81852 25.6778 6.94973 28.1296 9.9729C25.2767 8.13594 21.339 9.38432 19.994 8.64822C19.1688 8.19611 19.5352 7.30901 20.1602 6.90295Z" fill="#E363A4"></path>
        <path fill-rule="evenodd" clip-rule="evenodd" d="M20.158 6.90295C21.8269 5.81852 25.6756 6.94973 28.1274 9.9729C24.8634 7.13081 21.6337 8.85837 20.2894 8.12241C19.4642 7.67044 19.5331 7.30901 20.158 6.90295Z" fill="#F28DB9"></path>
        <path fill-rule="evenodd" clip-rule="evenodd" d="M20.8873 6.96976C22.6892 6.34549 25.8014 7.47398 28.1213 9.97319C24.857 7.13112 21.6273 8.85881 20.283 8.12286C19.2735 7.56998 20.2707 7.18337 20.8873 6.96976Z" fill="#F071A8"></path>
        <path fill-rule="evenodd" clip-rule="evenodd" d="M21.9755 8.90932C20.5812 9.24528 19.5816 9.87241 19.1391 10.6959C19.1154 10.6795 19.0928 10.6619 19.0704 10.6429C19.0128 10.5941 18.9905 10.5312 19.0037 10.4479C19.047 10.3157 19.1099 10.1876 19.1873 10.0711C19.1905 10.066 19.194 10.0608 19.1975 10.0555C19.554 9.53272 20.201 9.13142 21.0279 8.88672C21.3146 8.90788 21.6331 8.91163 21.9755 8.90932Z" fill="#F28DB9"></path>
        <path fill-rule="evenodd" clip-rule="evenodd" d="M34.3412 17.5977C35.0722 18.4248 36.6021 18.9547 38.7722 18.1603C38.4087 20.6318 35.2087 21.2322 33.6016 20.7314C33.8482 19.6869 34.0944 18.6425 34.3412 17.5977Z" fill="#E363A4"></path>
        <path fill-rule="evenodd" clip-rule="evenodd" d="M34.3377 17.5977C35.0687 18.4248 36.5986 18.9547 38.7687 18.1604C38.4052 20.6317 34.4048 20.1744 32.7969 19.6735C33.0439 18.6287 34.0908 18.6425 34.3377 17.5977Z" fill="#F071A8"></path>
        <path fill-rule="evenodd" clip-rule="evenodd" d="M8.0251 41.8564C10.6356 43.5536 16.6607 41.7835 20.4988 37.0508C16.0327 39.9259 9.86853 37.9728 7.76428 39.1247C6.47257 39.8323 7.0466 41.2205 8.0251 41.8564Z" fill="#41B349"></path>
        <path fill-rule="evenodd" clip-rule="evenodd" d="M32.1172 10.0581C34.827 9.0949 41.3474 12.0458 40.9552 18.144C39.1706 16.6229 35.8145 18.233 33.7573 17.4399C33.1512 15.1572 32.7232 12.3404 32.1172 10.0581Z" fill="#F28DB9"></path>
        <path fill-rule="evenodd" clip-rule="evenodd" d="M31.8516 11.0733C34.5622 10.1109 40.632 13.2114 40.9527 18.1464C39.1678 16.6252 35.8117 18.2356 33.7546 17.4423C33.1485 15.1596 32.4577 13.3556 31.8516 11.0733Z" fill="#F071A8"></path>
        <path fill-rule="evenodd" clip-rule="evenodd" d="M21.5781 40.2896C22.5757 36.4409 26.8394 35.881 28.2435 38.4686C29.1542 40.146 28.0524 41.7274 26.8344 40.4077C25.8201 39.3089 24.3886 37.0662 21.5781 40.2896Z" fill="#E363A4"></path>
        <path fill-rule="evenodd" clip-rule="evenodd" d="M21.5781 40.2891C22.745 36.7103 26.3866 36.1077 27.6207 38.5955C28.4743 40.3167 27.9267 41.459 26.7087 40.139C25.6944 39.0404 24.3886 37.0656 21.5781 40.2891Z" fill="#F071A8"></path>
        <path fill-rule="evenodd" clip-rule="evenodd" d="M20.1178 17.7872C20.4545 7.54681 29.5482 6.65669 32.5113 11.6946C33.2641 12.9751 33.9009 14.4832 33.9894 15.9582C34.0915 17.651 33.8345 17.9657 33.3313 19.817C32.6099 20.0858 33.5599 21.6888 33.7272 22.3614C36.4802 34.7367 31.0179 39.2459 21.5615 39.6376C15.2035 39.9009 16.4383 39.2466 16.9656 37.1985C18.053 32.969 18.6571 28.7295 19.4031 24.4911C19.8236 22.0988 20.0399 20.1746 20.1178 17.7872Z" fill="#4BB649"></path>
        <path d="M20.1098 17.7877C20.0316 20.1749 19.8156 22.099 19.3948 24.4914C18.6489 28.7298 18.0451 32.9695 16.9574 37.1988C16.4301 39.247 14.6659 39.7806 20.9988 39.1541C31.2946 38.1357 36.0009 35.0089 32.9719 20.7035C33.8015 18.3123 34.9678 17.6116 34.8371 15.4457C34.7479 13.9695 34.4312 11.9482 33.6775 10.667C32.6401 8.90346 30.7079 7.99219 28.6193 7.99219C24.7426 7.99233 20.3284 11.1322 20.1098 17.7877Z" fill="url(#paint0_linear_1266_25573)"></path>
        <path fill-rule="evenodd" clip-rule="evenodd" d="M29.1695 10.8516C27.398 10.8516 25.9609 12.2888 25.9609 14.0605C25.9609 15.8326 27.398 17.2697 29.1695 17.2697C30.9411 17.2697 32.3781 15.8326 32.3781 14.0605C32.3781 12.2888 30.9411 10.8516 29.1695 10.8516Z" fill="white"></path>
        <path d="M28.3047 13.6899V14.823C28.4753 15.3071 28.8591 15.6908 29.3432 15.8618H30.476C31.1374 15.6282 31.6118 14.9976 31.6118 14.2563C31.6118 13.3166 30.8492 12.5547 29.9096 12.5547C29.1683 12.5547 28.538 13.0285 28.3047 13.6899Z" fill="url(#paint1_radial_1266_25573)"></path>
        <path fill-rule="evenodd" clip-rule="evenodd" d="M30.1875 13.4414C29.7743 13.4414 29.4375 13.7772 29.4375 14.1913C29.4375 14.6047 29.7743 14.9405 30.1875 14.9405C30.6016 14.9405 30.936 14.6047 30.936 14.1913C30.936 13.7772 30.6016 13.4414 30.1875 13.4414Z" fill="black"></path>
        <path fill-rule="evenodd" clip-rule="evenodd" d="M30.5622 13.4414C30.3556 13.4414 30.1875 13.6094 30.1875 13.8161C30.1875 14.0235 30.3556 14.1913 30.5622 14.1913C30.769 14.1913 30.9361 14.0235 30.9361 13.8161C30.9361 13.6094 30.769 13.4414 30.5622 13.4414Z" fill="white"></path>
        <path fill-rule="evenodd" clip-rule="evenodd" d="M21.8024 21.0839C17.3667 23.1369 18.6985 32.5299 15.4062 41.9402C20.7278 39.7292 31.1744 28.9219 26.7867 22.5616C25.5276 20.7375 23.9205 20.1042 21.8024 21.0839Z" fill="#50B748"></path>
        <path fill-rule="evenodd" clip-rule="evenodd" d="M18.4062 27.4487C18.9349 24.7058 19.6402 22.5766 21.1215 21.4825C21.191 21.4311 21.2617 21.3825 21.3336 21.3362C21.4815 21.2411 21.6366 21.1555 21.8 21.08C23.9181 20.1003 25.5251 20.7335 26.7842 22.5576C27.9511 24.2495 28.0686 26.2562 27.513 28.3323C26.9513 29.2939 26.2546 29.9575 25.1456 30.6659C25.2103 29.6336 25.4552 28.6191 25.1243 27.5527C24.5583 28.5599 23.585 29.1655 22.54 29.5984C22.5852 28.782 22.8862 27.7825 22.9308 26.966C21.8363 27.8129 20.7407 28.6609 19.6454 29.5087C19.6409 29.5118 19.6366 29.5151 19.6324 29.5189C19.508 28.4081 19.5947 27.3407 19.9769 26.1799C19.4533 26.6032 18.9294 27.0258 18.4062 27.4487Z" fill="#ABD598"></path>
        <path fill-rule="evenodd" clip-rule="evenodd" d="M7.125 40.7794C10.3203 41.8585 13.8645 40.7853 17.2235 39.4766C17.1298 39.7639 16.9359 40.008 16.8363 40.2952C13.3242 42.6374 9.85121 43.0414 8.03009 41.8566C7.62404 41.5929 7.28736 41.1997 7.125 40.7794Z" fill="#06A44B"></path>
        <path fill-rule="evenodd" clip-rule="evenodd" d="M19.6478 29.5086L22.9331 26.9657L22.5424 29.5983C20.7256 34.2383 18.484 38.017 16.3093 41.0288C16.1176 41.2933 15.9295 41.5464 15.7448 41.7873C15.6294 41.8404 15.5166 41.8903 15.4062 41.9363C17.2468 36.6749 17.6422 31.4188 18.4087 27.4485L19.9793 26.1797L19.7497 28.4059L19.6348 29.5186L19.6478 29.5086Z" fill="#41B349"></path>
        <path fill-rule="evenodd" clip-rule="evenodd" d="M25.0577 20.9485C24.6878 23.4726 23.6515 26.5059 22.6006 29.1887L22.9308 26.9659L19.6454 29.5087L19.6324 29.5189L19.7473 28.406L19.9769 26.1798L18.4062 27.4487C18.9349 24.7059 19.6402 22.5767 21.1215 21.4824C21.191 21.431 21.2617 21.3826 21.3337 21.3362C21.4815 21.241 21.6366 21.1555 21.8 21.0801C23.0534 20.4998 24.1282 20.4853 25.0577 20.9485Z" fill="#95CD8D"></path>
        <path fill-rule="evenodd" clip-rule="evenodd" d="M20.2969 40.7505C21.2937 36.9018 25.5584 36.3421 26.9624 38.9294C27.873 40.6074 26.7711 42.1884 25.5532 40.8688C24.5388 39.77 23.1083 37.5272 20.2969 40.7505Z" fill="#E363A4"></path>
        <path fill-rule="evenodd" clip-rule="evenodd" d="M20.2969 40.7533C21.2937 36.9046 24.5688 37.128 26.0846 38.9322C27.2646 40.3371 26.7711 42.1912 25.5532 40.8716C24.5388 39.7728 23.1083 37.53 20.2969 40.7533Z" fill="#F071A8"></path>
        <path fill-rule="evenodd" clip-rule="evenodd" d="M18.8438 39.845C22.4094 37.1229 26.3732 32.5832 27.513 28.3347C28.0688 26.2583 27.9512 24.2518 26.7842 22.56C26.3875 21.985 25.9562 21.5288 25.4852 21.2037C26.1096 20.286 26.7922 19.4572 26.884 19.8712C27.1661 21.1395 27.2193 22.0195 27.7693 24.0955C28.1379 23.5891 28.4264 23.1755 28.6674 22.8136C29.3517 25.5234 28.3124 29.2072 27.0003 31.6286C25.9605 33.5466 24.7811 35.5221 25.5369 36.8825C25.5822 36.963 25.6303 37.0419 25.6816 37.1197C26.0605 37.6902 26.6863 38.2328 27.3698 38.6788C27.2252 38.7209 27.0536 38.7864 26.9039 38.8257C26.2737 37.8174 25.144 37.2812 24.0182 37.3525C23.8962 37.3601 23.7751 37.3739 23.6528 37.3945C23.0775 37.491 22.5044 37.7297 21.9923 38.1117C21.4719 38.44 21.0053 38.9664 20.6553 39.7303C19.9411 39.7969 19.3427 39.8341 18.8438 39.845Z" fill="#06A44B"></path>
        <path fill-rule="evenodd" clip-rule="evenodd" d="M21.123 21.4858C20.4731 21.9658 19.9722 22.6459 19.5703 23.4897C19.8812 21.5396 20.0485 19.8343 20.1165 17.7895C20.1237 17.5655 20.1355 17.3456 20.1523 17.1303C20.2588 17.0544 20.3692 16.9836 20.4823 16.918C20.5086 19.0778 20.7708 20.0359 21.1306 20.7793C21.395 20.42 22.792 19.3144 23.9765 18.1991C23.9062 19.0566 23.904 19.9006 23.9553 20.6376C23.301 20.5783 22.5868 20.7201 21.8015 21.0834C21.6382 21.159 21.483 21.2445 21.3351 21.3395C21.2632 21.386 21.1923 21.4345 21.123 21.4858Z" fill="#06A44B"></path>
        <path fill-rule="evenodd" clip-rule="evenodd" d="M26.4515 19.9773C26.182 20.2394 25.8279 20.709 25.4905 21.2048C25.3517 21.1093 25.2094 21.0242 25.0632 20.9517C24.7164 20.7783 24.3485 20.6723 23.9592 20.6374C23.908 19.9003 23.9103 19.0566 23.9804 18.1988C22.7959 19.3143 21.3988 20.4197 21.1346 20.779C20.7747 20.0357 20.5125 19.0776 20.4863 16.9177C20.3731 16.9834 20.2628 17.0543 20.1562 17.1302C20.8404 8.26367 28.5063 5.97922 32.2991 9.12544C26.0266 9.13278 22.1321 13.0855 26.4515 19.9773Z" fill="#969796"></path>
        <path fill-rule="evenodd" clip-rule="evenodd" d="M29.1847 10.8516C26.6399 11.7849 26.0258 14.2825 27.0751 16.4913C26.3931 15.903 25.9609 15.0321 25.9609 14.0605C25.9609 12.2888 27.398 10.8516 29.1694 10.8516H29.1847Z" fill="#E4E4E4"></path>
        <path fill-rule="evenodd" clip-rule="evenodd" d="M30.2081 20.8641C30.3353 21.8403 30.6047 22.6566 31.0006 23.4713C31.5919 22.835 32.1894 21.6228 32.4595 20.605C32.6127 21.5635 33.1576 22.0587 33.6994 22.2778C33.5556 21.6718 33.5192 21.124 34.0975 20.8464C34.1318 20.8297 34.1682 20.8143 34.2075 20.8001C34.2792 20.5342 34.3463 20.2684 34.407 20.0045C34.5649 19.3213 34.6837 18.6453 34.7612 17.9803C34.7735 17.8724 34.7844 17.765 34.7954 17.6578C34.8678 16.9033 34.8844 16.1645 34.8414 15.4468C34.7597 14.0824 34.4815 12.2511 33.8454 10.9703C33.7936 10.8658 33.7388 10.765 33.6819 10.6683C33.5154 10.3846 33.3254 10.1228 33.1145 9.8837C32.8654 9.59885 32.5872 9.34623 32.285 9.125C30.6871 9.12773 29.2436 9.38639 28.0512 9.885C28.049 9.88658 28.046 9.88744 28.0438 9.88845C28.0393 9.89018 28.0351 9.89206 28.0306 9.89392C28.0248 9.8968 28.0175 9.89939 28.0109 9.90256C24.557 11.3693 23.241 14.8646 26.4452 19.9769C26.1757 20.239 25.8216 20.7085 25.4845 21.2044C25.9554 21.5293 26.3868 21.9857 26.7835 22.5604C27.1543 23.0985 27.4187 23.6682 27.5897 24.2611C28.7798 23.3607 29.7224 22.0124 30.2081 20.8641ZM29.1654 17.2699C28.3651 17.2699 27.6334 16.9765 27.071 16.4915C26.3892 15.9034 25.9568 15.0326 25.9568 14.0608C25.9568 12.2891 27.3939 10.8518 29.1654 10.8518H29.1806C30.945 10.8608 32.3741 12.2941 32.3741 14.0608C32.3741 15.8329 30.9369 17.2699 29.1654 17.2699Z" fill="#CDCBCA"></path>
    </g>
    <defs>
        <linearGradient id="paint0_linear_1266_25573" x1="23.2455" y1="25.7856" x2="-8.63325" y2="50.9229" gradientUnits="userSpaceOnUse">
            <stop stop-color="#21B14B"></stop>
            <stop offset="0.00317986" stop-color="#21B14B"></stop>
            <stop offset="1" stop-color="#0F1010"></stop>
        </linearGradient>
        <radialGradient id="paint1_radial_1266_25573" cx="0" cy="0" r="1" gradientUnits="userSpaceOnUse" gradientTransform="translate(30.2786 14.0921) rotate(180) scale(1.3274)">
            <stop stop-color="white"></stop>
            <stop offset="1" stop-color="#996631"></stop>
        </radialGradient>
        <clipPath id="clip0_1266_25573">
            <rect y="0.5" width="48" height="48" rx="12" fill="white"></rect>
        </clipPath>
    </defs>
</svg>