<svg class="app-icon" data-droip="dpmfdvi0" xmlns="http://www.w3.org/2000/svg" width="48" height="49" viewBox="0 0 48 49" fill="none">
    <g clip-path="url(#clip0_1266_25617)">
        <rect y="0.5" width="48" height="48" fill="#FF5100"></rect>
        <path fill-rule="evenodd" clip-rule="evenodd" d="M21.2244 6.5H26.7826C32.5278 6.5 35.4005 6.5 37.5262 7.76325C38.8184 8.53118 39.8977 9.6105 40.6656 10.9027C41.9289 13.0284 41.9289 15.901 41.9289 21.6463V23.3217C41.9289 27.4868 41.9289 29.5694 41.2529 31.2137C40.3389 33.4372 38.5735 35.2027 36.35 36.1167C34.7056 36.7926 32.6231 36.7926 28.4579 36.7926L19.4568 42.5V36.7926C15.3783 36.7926 13.339 36.7926 11.7242 36.144C9.44673 35.2291 7.64161 33.424 6.72679 31.1466C6.07812 29.5317 6.07812 27.4925 6.07812 23.414V21.6463C6.07812 15.901 6.07812 13.0284 7.34137 10.9027C8.1093 9.6105 9.18863 8.53118 10.4808 7.76325C12.6065 6.5 15.4792 6.5 21.2244 6.5ZM11.9544 18.3399V24.9693C11.9544 27.7274 11.9544 29.1064 12.8112 29.9633C13.668 30.8201 15.047 30.8201 17.8051 30.8201H19.4649V36.5312L28.4075 30.8201H30.2107C32.9688 30.8201 34.3478 30.8201 35.2046 29.9633C36.0614 29.1064 36.0614 27.7274 36.0614 24.9693V18.3399C36.0614 15.5818 36.0614 14.2028 35.2046 13.346C34.3478 12.4891 32.9688 12.4891 30.2107 12.4891H17.8051C15.047 12.4891 13.668 12.4891 12.8112 13.346C11.9544 14.2028 11.9544 15.5818 11.9544 18.3399Z" fill="white"></path>
    </g>
    <defs>
        <clipPath id="clip0_1266_25617">
            <rect y="0.5" width="48" height="48" rx="12" fill="white"></rect>
        </clipPath>
    </defs>
</svg>