<svg class="app-icon" data-droip="dpsbw8rm" xmlns="http://www.w3.org/2000/svg" width="48" height="49" viewBox="0 0 48 49" fill="none">
    <g clip-path="url(#clip0_1266_25445)">
        <rect y="0.5" width="48" height="48" fill="white"></rect>
        <path d="M35.2524 28.9572V14.2392C35.2524 13.3004 34.8799 12.3999 34.2166 11.7355C33.5534 11.0711 32.6536 10.697 31.7148 10.6953H16.6142C15.6743 10.6953 14.7729 11.0687 14.1083 11.7333C13.4437 12.3979 13.0703 13.2993 13.0703 14.2392V28.9572C13.0711 29.8965 13.4449 30.7971 14.1094 31.461C14.7739 32.125 15.6748 32.4979 16.6142 32.4979H20.3086L17.301 33.4388L19.7064 41.0816L31.0217 37.5001L29.4536 32.4822H31.7148C32.6503 32.4806 33.5473 32.1091 34.21 31.4487C34.8727 30.7883 35.2474 29.8927 35.2524 28.9572Z" fill="white"></path>
        <path d="M24.0618 24.5625C18.8934 24.5625 14.6251 25.9675 12.4141 27.9433C12.4111 28.5661 12.5324 29.1833 12.7709 29.7587C13.0094 30.3341 13.3603 30.8561 13.8031 31.2942C14.2458 31.7323 14.7716 32.0776 15.3494 32.31C15.9273 32.5424 16.5458 32.6571 17.1685 32.6475H30.9676C33.7055 32.6475 35.744 30.609 35.7534 28.0499C33.5393 26.0773 29.2428 24.5719 24.0712 24.5719" fill="#E06154"></path>
        <path d="M23.114 19.5791C23.2614 18.9989 23.0889 18.4532 22.7283 18.3623C22.3676 18.2713 21.9568 18.6759 21.8094 19.2498C21.662 19.8237 21.8376 20.3757 22.1983 20.4667C22.5589 20.5576 22.9698 20.153 23.114 19.5791ZM25.1964 19.6011C25.3627 20.175 25.786 20.5607 26.1373 20.4572C26.4885 20.3538 26.6516 19.8049 26.4854 19.2279C26.3192 18.6508 25.8989 18.287 25.5446 18.3717C25.1902 18.4564 25.0302 19.024 25.1933 19.6011M20.3668 28.8151C19.8807 27.9872 19.0684 27.5606 18.5509 27.8743C18.0335 28.1879 18.0115 29.0942 18.5007 29.9253C18.99 30.7564 19.7991 31.1798 20.3134 30.8818C20.8278 30.5839 20.8529 29.6619 20.3668 28.8308M30.2049 29.9724C30.691 29.1256 30.669 28.2224 30.1484 27.9088C29.6278 27.5951 28.8218 28.0373 28.3357 28.8653C27.8496 29.6932 27.8716 30.6153 28.3859 30.9163C28.9003 31.2174 29.7157 30.7909 30.2018 29.9755M34.9311 28.8245C34.9253 29.8041 34.5323 30.7417 33.8378 31.4327C33.1433 32.1236 32.2038 32.5118 31.2241 32.5126H16.9264C16.4391 32.5135 15.9563 32.4182 15.5059 32.2323C15.0554 32.0464 14.646 31.7734 14.3011 31.4291C13.9562 31.0848 13.6826 30.6759 13.4959 30.2257C13.3093 29.7756 13.2132 29.293 13.2132 28.8057V27.3129C15.5716 25.6758 19.4541 24.5625 24.0549 24.5625C28.6556 24.5625 32.5633 25.7574 34.928 27.4101L34.9311 28.8245ZM34.9311 26.2623C32.5476 24.5782 28.618 23.5683 24.058 23.5683C19.5482 23.5683 15.6155 24.5938 13.2163 26.2591V14.5079C13.2163 14.0209 13.3123 13.5386 13.4988 13.0886C13.6853 12.6387 13.9586 12.2299 14.3032 11.8856C14.6477 11.5414 15.0567 11.2684 15.5068 11.0823C15.9569 10.8962 16.4393 10.8006 16.9264 10.801H31.2241C32.2076 10.801 33.1508 11.1915 33.8465 11.8865C34.5421 12.5816 34.9334 13.5245 34.9342 14.5079L34.9311 26.2623ZM18.1526 34.2469L21.6557 36.0157L19.8399 39.5502L18.1526 34.2469ZM20.6271 40.2276L22.5589 36.4642L24.7542 37.5681L26.0087 35.3321L29.8787 37.2859L20.6271 40.2276ZM25.8268 33.5539L24.3371 36.2415L19.0151 33.5539H25.8268ZM30.2174 36.3482L26.4729 34.4665L26.9841 33.5539H29.3362L30.2174 36.3482ZM41.9906 15.4896L33.6672 10.6599C32.9074 10.1318 32.0137 9.8295 31.0893 9.78802C29.6435 6.33824 28.4392 8.76877 28.0535 9.76607H20.1315C18.6858 6.34138 17.4878 8.77818 17.102 9.7692C16.0559 9.77999 15.0397 10.1202 14.1979 10.7414L6 15.4833C6 15.4833 9.29611 18.1208 12.1782 16.6688V28.4827C12.1791 29.7722 12.6717 31.0129 13.5558 31.9517C14.4398 32.8905 15.6486 33.4568 16.9358 33.535V33.5539C16.9327 33.6008 16.9327 33.648 16.9358 33.695C16.9432 33.7437 16.9537 33.7919 16.9672 33.8392V33.8926L19.1123 40.6322C19.1464 40.7338 19.1949 40.8299 19.2566 40.9176C19.2886 40.9574 19.3232 40.9951 19.36 41.0305C19.39 41.0672 19.4225 41.1018 19.4573 41.134C19.6454 41.2891 19.8814 41.3744 20.1253 41.3754C20.2316 41.3735 20.3372 41.3566 20.4389 41.3253L30.7161 38.0825C30.8677 38.0348 31.0068 37.9536 31.1229 37.8451C31.239 37.7365 31.3294 37.6033 31.3872 37.4552C31.4244 37.3545 31.4466 37.2488 31.4531 37.1416C31.4531 37.1416 31.4531 37.1103 31.4531 37.0914C31.4548 36.9853 31.44 36.8795 31.4092 36.7778L30.3993 33.5539H30.9576C32.2797 33.5406 33.5431 33.0061 34.4733 32.0665C35.4035 31.1269 35.9253 29.8582 35.9253 28.536L35.8186 16.6688C38.7008 18.1271 42 15.4864 42 15.4864" fill="#384257"></path>
    </g>
    <defs>
        <clipPath id="clip0_1266_25445">
            <rect y="0.5" width="48" height="48" rx="12" fill="white"></rect>
        </clipPath>
    </defs>
</svg>