<svg class="app-icon" data-droip="dpesdro0" xmlns="http://www.w3.org/2000/svg" width="48" height="49" viewBox="0 0 48 49" fill="none" style="animation-name: none; will-change: transform; transition-property: transform; transition-duration: 400ms; transition-timing-function: ease; transform-style: preserve-3d; transform: scaleX(1) scaleY(1);">
    <g clip-path="url(#clip0_1266_25611)">
        <rect y="0.5" width="48" height="48" fill="#E42527"></rect>
        <path d="M41.6847 40.6788L37.4413 36.4478C38.7441 34.9712 39.7988 33.321 40.568 31.4971C41.4986 29.2761 41.9825 26.931 41.9825 24.4991C41.9825 22.0672 41.511 19.7097 40.568 17.5011C39.6623 15.3546 38.3595 13.4313 36.7092 11.7811C35.059 10.1309 33.1358 8.82807 30.9892 7.9223C28.7683 6.97931 26.4232 6.50781 23.9913 6.50781C21.5593 6.50781 19.2019 6.97931 16.9809 7.9223C14.8467 8.82807 12.9235 10.1309 11.2609 11.7811C9.59825 13.4313 8.32025 15.3546 7.41449 17.5011C6.4715 19.7097 6 22.0672 6 24.4991C6 26.931 6.4715 29.2885 7.41449 31.4971C8.32025 33.6436 9.62307 35.5668 11.2733 37.217C12.9235 38.8673 14.8467 40.1701 16.9933 41.0759C19.2019 42.0188 21.5593 42.4903 23.9913 42.4903L40.9403 42.4779C41.3621 42.4779 41.7468 42.2174 41.9205 41.8203C42.0818 41.4357 41.9949 40.9766 41.6847 40.6788ZM23.9913 40.381C21.8447 40.381 19.7726 39.9592 17.8122 39.1278C15.9262 38.3337 14.2264 37.1798 12.7622 35.7281C11.2981 34.2764 10.1566 32.5765 9.36251 30.6781C8.53118 28.7177 8.10932 26.6456 8.10932 24.4991C8.10932 22.3525 8.53118 20.2804 9.36251 18.32C10.1566 16.434 11.3105 14.7342 12.7622 13.27C14.2264 11.8059 15.9138 10.6644 17.8122 9.87032C19.7726 9.039 21.8447 8.61713 23.9913 8.61713C26.1378 8.61713 28.2099 9.039 30.1703 9.87032C32.0563 10.6644 33.7562 11.8183 35.2203 13.27C36.6844 14.7342 37.8259 16.4216 38.62 18.32C39.4513 20.2804 39.8732 22.3525 39.8732 24.4991C39.8732 26.6456 39.4513 28.7177 38.6324 30.6657C37.9748 32.2291 37.0691 33.6684 35.9524 34.9464L26.5473 25.5537H27.9493C28.5325 25.5537 29.004 25.0822 29.004 24.4991C29.004 23.9159 28.5325 23.4444 27.9493 23.4444H24.0161C24.0161 23.4444 24.0161 23.4444 24.0037 23.4444C23.7307 23.4444 23.4577 23.5437 23.2468 23.7546C22.9986 24.0028 22.8994 24.3626 22.949 24.6852V28.4323C22.949 29.0155 23.4205 29.487 24.0037 29.487C24.5868 29.487 25.0583 29.0155 25.0583 28.4323V27.0551L38.3967 40.3686L23.9913 40.381Z" fill="white"></path>
        <path d="M23.991 31.5975C20.0826 31.5975 16.8938 28.4087 16.8938 24.5002C16.8938 20.5918 20.0826 17.403 23.991 17.403C27.8995 17.403 31.0883 20.5918 31.0883 24.5002C31.0883 25.1206 31.0138 25.7286 30.8525 26.3118C30.7036 26.8701 31.0386 27.4533 31.6094 27.6022C32.1678 27.7511 32.7509 27.416 32.8998 26.8453C33.0983 26.076 33.1976 25.2943 33.1976 24.4878C33.1976 22.0311 32.2422 19.7108 30.5051 17.9737C28.768 16.2366 26.4602 15.2812 23.991 15.2812C21.5219 15.2812 19.214 16.2366 17.477 17.9737C15.7399 19.7108 14.7969 22.0435 14.7969 24.5002C14.7969 26.957 15.7523 29.2772 17.4894 31.0143C19.2264 32.7514 21.5343 33.7068 24.0034 33.7068C24.8348 33.7068 25.6537 33.5951 26.4478 33.3842C27.0061 33.2353 27.3411 32.6521 27.1922 32.0814C27.0433 31.523 26.4602 31.188 25.8894 31.3369C25.269 31.5106 24.6362 31.5975 23.991 31.5975Z" fill="white"></path>
    </g>
    <defs>
        <clipPath id="clip0_1266_25611">
            <rect y="0.5" width="48" height="48" rx="12" fill="white"></rect>
        </clipPath>
    </defs>
</svg>