<svg class="app-icon" data-droip="dp97w2nm" xmlns="http://www.w3.org/2000/svg" width="48" height="49" viewBox="0 0 48 49" fill="none">
    <g clip-path="url(#clip0_946_18721)">
        <rect y="0.5" width="48" height="48" fill="#326BE1"></rect>
        <path d="M35.3759 26.8702C36.3547 26.2036 36.6818 25.3887 36.6818 24.6479V24.2777C36.6818 23.4628 36.1916 22.7962 35.3759 22.2777C34.7236 21.8332 10.5 6.5 10.5 6.5V9.75923C10.5 10.8703 11.1533 11.2407 12.0497 11.8333C13.273 12.6481 32.1959 24.5739 32.1959 24.5739C32.1959 24.5739 13.0292 36.6478 11.8865 37.3145C10.6631 38.0553 10.5824 38.4997 10.5824 39.4627V42.4997C10.4184 42.5738 34.235 27.6109 35.3759 26.8702Z" fill="white"></path>
        <path d="M10.5 17.3834V19.5356C10.5 19.5356 17.8523 24.1269 19.2907 24.9879C20.4894 25.7052 21.5283 25.6335 22.727 24.8444C23.5262 24.3422 24.2454 23.9117 24.2454 23.9117C24.2454 23.9117 13.5368 17.2399 12.418 16.5942C11.5389 16.0203 10.5 16.379 10.5 17.3834Z" fill="white"></path>
    </g>
    <defs>
        <clipPath id="clip0_946_18721">
            <rect y="0.5" width="48" height="48" rx="12" fill="white"></rect>
        </clipPath>
    </defs>
</svg>