<svg class="app-icon" data-droip="dp8b906p" xmlns="http://www.w3.org/2000/svg" width="48" height="49" viewBox="0 0 48 49" fill="none">
    <g clip-path="url(#clip0_1266_25470)">
        <rect y="0.5" width="48" height="48" fill="#E843F0"></rect>
        <path fill-rule="evenodd" clip-rule="evenodd" d="M12.5394 28.2697L13.9598 28.2601C14.4481 28.2151 14.5459 28.4008 14.5493 28.862C14.5797 33.2655 17.5183 37.031 21.7524 38.1285C27.0176 39.4937 32.64 35.6871 33.3319 30.2813C33.3977 29.7683 33.4585 29.2479 33.4422 28.7332C33.4287 28.3136 33.5963 28.2551 33.953 28.2618C34.9677 28.2809 35.978 28.2956 36.9979 28.2562C37.4648 28.2382 37.5604 28.4058 37.5492 28.8277C37.4108 34.1289 35.0876 38.1915 30.4783 40.7881C22.1777 45.4643 11.7198 40.0663 10.565 30.5879C10.4907 29.9803 10.484 29.3751 10.448 28.7687C10.4215 28.3186 10.5914 28.2354 10.988 28.2601C11.5055 28.2928 12.0253 28.268 12.5439 28.268L12.5394 28.2697ZM15.9494 15.519C17.7596 13.0293 19.679 10.7983 21.7209 8.67087C22.3605 8.00428 23.0299 7.36582 23.6762 6.70598C23.8692 6.5091 23.9941 6.38816 24.2646 6.65086C27.0637 9.36784 29.6536 12.2671 32.0443 15.5185C30.3117 15.5185 28.6821 15.5162 27.0519 15.5201C26.7707 15.5207 26.6947 15.2771 26.5682 15.1084L24.2759 12.0145C24.052 11.7017 23.9384 11.6866 23.7134 12.01L21.3902 15.1601C21.2214 15.3851 21.0566 15.5275 20.7359 15.523L15.9478 15.5134L15.9494 15.519ZM15.8949 19.2879C17.4204 19.2924 18.595 20.4613 18.595 21.9751C18.595 23.5147 17.3782 24.7314 15.8572 24.7314C14.3238 24.7202 13.1554 23.5085 13.1683 21.9436C13.1796 20.4259 14.3496 19.2885 15.8954 19.2997L15.8949 19.2879ZM23.9766 19.2879C25.5123 19.2823 26.7037 20.4321 26.7184 21.9335C26.7335 23.4832 25.5483 24.7112 24.0183 24.7258C22.4882 24.7404 21.2844 23.5299 21.2866 21.9807C21.2889 20.4461 22.4376 19.2947 23.9716 19.289L23.9766 19.2879ZM32.1219 19.2873C33.6503 19.2879 34.8333 20.4518 34.8389 21.9593C34.8446 23.5006 33.6368 24.7269 32.1163 24.7252C30.5851 24.7236 29.4027 23.5119 29.4162 21.9531C29.4241 20.4276 30.5846 19.2868 32.1276 19.2868L32.1219 19.2873Z" fill="black"></path>
    </g>
    <defs>
        <clipPath id="clip0_1266_25470">
            <rect y="0.5" width="48" height="48" rx="12" fill="white"></rect>
        </clipPath>
    </defs>
</svg>